<svg width="159" height="33" viewBox="0 0 159 33" fill="none" xmlns="http://www.w3.org/2000/svg">
<path d="M133.531 32.9846L137.08 23.6128L137.131 26.3799L129.134 7.2905H132.835L138.812 22.0317H137.725L143.43 7.2905H147.029L136.91 32.9846H133.531Z" fill="white"/>
<path d="M128.024 25.0787C126.869 25.2983 125.737 25.3917 124.628 25.3587C123.519 25.3258 122.528 25.1171 121.657 24.7328C120.785 24.3485 120.129 23.7446 119.687 22.9211C119.291 22.1854 119.076 21.4387 119.042 20.6811C119.02 19.9124 119.008 19.045 119.008 18.0787V2.34933H122.574V17.914C122.574 18.6277 122.579 19.2481 122.591 19.7752C122.613 20.3022 122.732 20.747 122.947 21.1093C123.355 21.7901 124 22.1799 124.883 22.2787C125.777 22.3666 126.824 22.3281 128.024 22.1634V25.0787ZM115.494 10.0576V7.29051H128.024V10.0576H115.494Z" fill="white"/>
<path d="M109.224 4.37523V1.03171H112.772V4.37523H109.224ZM109.224 25.0787V7.29052H112.772V25.0787H109.224Z" fill="white"/>
<path d="M100.577 25.0787V0.866989H104.125V25.0787H100.577Z" fill="white"/>
<path d="M86.4226 25.5728C85.0644 25.5728 83.9268 25.3312 83.01 24.8481C82.0932 24.354 81.3971 23.7061 80.9217 22.9046C80.4576 22.092 80.2256 21.2026 80.2256 20.2363C80.2256 19.3359 80.3897 18.5454 80.718 17.8646C81.0462 17.1838 81.5329 16.6073 82.1781 16.1352C82.8232 15.652 83.6155 15.2622 84.555 14.9658C85.37 14.7352 86.2924 14.532 87.3224 14.3563C88.3524 14.1807 89.4334 14.016 90.5653 13.8622C91.7085 13.7085 92.8403 13.5548 93.9609 13.4011L92.6705 14.0928C92.6932 12.6983 92.3876 11.6662 91.7537 10.9964C91.1312 10.3156 90.0559 9.97518 88.5279 9.97518C87.5658 9.97518 86.6829 10.1948 85.8793 10.634C85.0757 11.0622 84.5154 11.776 84.1985 12.7752L80.8877 11.7869C81.3405 10.2607 82.2007 9.04733 83.4684 8.14694C84.7474 7.24655 86.4452 6.79636 88.5618 6.79636C90.2031 6.79636 91.6292 7.07087 92.8403 7.61988C94.0628 8.15792 94.9569 9.01439 95.5229 10.1893C95.8172 10.7713 95.9983 11.3862 96.0662 12.034C96.1341 12.6818 96.168 13.3791 96.168 14.1258V25.0787H93.0271V21.0105L93.6383 21.5375C92.8799 22.8991 91.9122 23.9148 90.735 24.5846C89.5692 25.2434 88.1317 25.5728 86.4226 25.5728ZM87.0508 22.7563C88.0582 22.7563 88.924 22.5861 89.6484 22.2457C90.3728 21.8944 90.9558 21.4497 91.3972 20.9116C91.8386 20.3736 92.1272 19.8136 92.2631 19.2316C92.4555 18.7046 92.563 18.1116 92.5857 17.4528C92.6196 16.794 92.6366 16.2669 92.6366 15.8716L93.7911 16.2834C92.6705 16.4481 91.6519 16.5963 90.735 16.7281C89.8182 16.8599 88.9863 16.9916 88.2393 17.1234C87.5035 17.2442 86.8471 17.3924 86.2698 17.5681C85.7831 17.7328 85.3473 17.9305 84.9625 18.161C84.589 18.3916 84.289 18.6716 84.0626 19.001C83.8476 19.3305 83.7401 19.7312 83.7401 20.2034C83.7401 20.6646 83.8589 21.0928 84.0966 21.4881C84.3343 21.8724 84.6965 22.1799 85.1832 22.4105C85.6699 22.641 86.2924 22.7563 87.0508 22.7563Z" fill="white"/>
<path d="M69.7871 25.5728C67.9648 25.5728 66.3632 25.1885 64.9823 24.4199C63.6127 23.6403 62.5431 22.5587 61.7734 21.1752C61.015 19.7807 60.6359 18.1665 60.6359 16.3328C60.6359 14.3893 61.0094 12.7038 61.7564 11.2763C62.5148 9.8489 63.5674 8.74537 64.9144 7.96577C66.2613 7.18616 67.8289 6.79636 69.6173 6.79636C71.4849 6.79636 73.0752 7.2191 74.3881 8.06459C75.7011 8.8991 76.6802 10.0905 77.3254 11.6387C77.9818 13.1869 78.2422 15.0261 78.1063 17.1563H74.5579V15.9046C74.5353 13.8403 74.1278 12.314 73.3355 11.3258C72.5545 10.3375 71.3604 9.84341 69.7531 9.84341C67.9761 9.84341 66.6405 10.3869 65.7463 11.474C64.8521 12.5611 64.405 14.1312 64.405 16.1846C64.405 18.1391 64.8521 19.6544 65.7463 20.7305C66.6405 21.7956 67.9308 22.3281 69.6173 22.3281C70.7265 22.3281 71.683 22.0865 72.4866 21.6034C73.3015 21.1093 73.9354 20.4065 74.3881 19.4952L77.8687 20.5657C77.1556 22.1579 76.0746 23.3932 74.6258 24.2716C73.177 25.1391 71.5641 25.5728 69.7871 25.5728ZM63.2505 17.1563V14.4716H76.3406V17.1563H63.2505Z" fill="white"/>
<path d="M39.9093 25.0787V1.36108H49.7906C50.0283 1.36108 50.3225 1.37206 50.6734 1.39402C51.0243 1.40501 51.3582 1.43795 51.6751 1.49285C53.0334 1.70147 54.1653 2.15167 55.0708 2.84344C55.9876 3.5352 56.6724 4.40814 57.1251 5.46225C57.5779 6.51637 57.8042 7.68029 57.8042 8.95402C57.8042 10.8426 57.3062 12.4732 56.3102 13.8458C55.3141 15.2073 53.82 16.0583 51.8279 16.3987L50.3848 16.5634H43.4577V25.0787H39.9093ZM54.2049 25.0787L49.3831 15.4269L52.9655 14.5375L58.2626 25.0787H54.2049ZM43.4577 13.3022H49.6547C49.8811 13.3022 50.1301 13.2913 50.4018 13.2693C50.6847 13.2473 50.9507 13.2089 51.1998 13.154C51.9242 12.9893 52.5071 12.6873 52.9485 12.2481C53.3899 11.7979 53.7069 11.2819 53.8993 10.6999C54.0917 10.1179 54.1879 9.53597 54.1879 8.95402C54.1879 8.37206 54.0917 7.79558 53.8993 7.2246C53.7069 6.64264 53.3899 6.13206 52.9485 5.69284C52.5071 5.24265 51.9242 4.9352 51.1998 4.77049C50.9507 4.70461 50.6847 4.66069 50.4018 4.63873C50.1301 4.61677 49.8811 4.60579 49.6547 4.60579H43.4577V13.3022Z" fill="white"/>
<path d="M19.7079 25.0787L26.567 16.0858L19.8607 7.2905H24.0713L28.6384 13.4011L33.1546 7.2905H37.3651L30.6588 16.0858L37.5349 25.0787H33.3074L28.6384 18.7705L23.9354 25.0787H19.7079Z" fill="white"/>
<path d="M0 25.0787V1.36108H9.88126C10.119 1.36108 10.4132 1.37206 10.7641 1.39402C11.115 1.40501 11.4489 1.43795 11.7658 1.49285C13.1241 1.70147 14.256 2.15167 15.1615 2.84344C16.0783 3.5352 16.7631 4.40814 17.2158 5.46225C17.6686 6.51637 17.8949 7.68029 17.8949 8.95402C17.8949 10.8426 17.3969 12.4732 16.4009 13.8458C15.4048 15.2073 13.9107 16.0583 11.9186 16.3987L10.4755 16.5634H3.54843V25.0787H0ZM14.2956 25.0787L9.47379 15.4269L13.0562 14.5375L18.3533 25.0787H14.2956ZM3.54843 13.3022H9.74544C9.97181 13.3022 10.2208 13.2913 10.4925 13.2693C10.7754 13.2473 11.0414 13.2089 11.2904 13.154C12.0148 12.9893 12.5978 12.6873 13.0392 12.2481C13.4806 11.7979 13.7976 11.2819 13.99 10.6999C14.1824 10.1179 14.2786 9.53597 14.2786 8.95402C14.2786 8.37206 14.1824 7.79558 13.99 7.2246C13.7976 6.64264 13.4806 6.13206 13.0392 5.69284C12.5978 5.24265 12.0148 4.9352 11.2904 4.77049C11.0414 4.70461 10.7754 4.66069 10.4925 4.63873C10.2208 4.61677 9.97181 4.60579 9.74544 4.60579H3.54843V13.3022Z" fill="white"/>
<path d="M154.713 9.1023C154.119 9.1023 153.561 8.99524 153.041 8.78113C152.526 8.56152 152.073 8.26231 151.682 7.88348C151.292 7.49917 150.983 7.05721 150.757 6.5576C150.536 6.0525 150.426 5.51172 150.426 4.93525C150.426 4.36427 150.536 3.82898 150.757 3.32937C150.983 2.82427 151.292 2.38231 151.682 2.00349C152.073 1.61918 152.526 1.31996 153.041 1.10584C153.561 0.891727 154.119 0.784668 154.713 0.784668C155.302 0.784668 155.853 0.891727 156.368 1.10584C156.889 1.31996 157.345 1.61918 157.735 2.00349C158.131 2.38231 158.44 2.82427 158.66 3.32937C158.887 3.82898 159 4.36427 159 4.93525C159 5.51172 158.887 6.0525 158.66 6.5576C158.44 7.05721 158.131 7.49917 157.735 7.88348C157.345 8.26231 156.889 8.56152 156.368 8.78113C155.853 8.99524 155.302 9.1023 154.713 9.1023ZM154.721 7.89995C155.276 7.89995 155.785 7.76544 156.25 7.49642C156.714 7.2274 157.084 6.8678 157.362 6.4176C157.639 5.96741 157.778 5.47329 157.778 4.93525C157.778 4.38623 157.639 3.88937 157.362 3.44466C157.084 2.99447 156.714 2.63761 156.25 2.37408C155.785 2.10506 155.276 1.97055 154.721 1.97055C154.156 1.97055 153.641 2.10506 153.176 2.37408C152.712 2.63761 152.342 2.99447 152.064 3.44466C151.793 3.88937 151.657 4.38623 151.657 4.93525C151.657 5.47329 151.793 5.96741 152.064 6.4176C152.342 6.8678 152.712 7.2274 153.176 7.49642C153.641 7.76544 154.156 7.89995 154.721 7.89995ZM153.312 6.86231V2.98349H155.019C155.42 2.98349 155.743 3.10427 155.986 3.34584C156.235 3.58192 156.366 3.88662 156.377 4.25996C156.377 4.48506 156.315 4.70192 156.19 4.91054C156.071 5.11368 155.896 5.27564 155.664 5.39643L156.411 6.86231H155.596L154.934 5.51996H154.025V6.86231H153.312ZM154.025 4.86937H155.036C155.205 4.86937 155.35 4.81172 155.469 4.69643C155.587 4.57564 155.647 4.43015 155.647 4.25996C155.647 4.06231 155.59 3.91133 155.477 3.80702C155.364 3.69721 155.217 3.64231 155.036 3.64231H154.025V4.86937Z" fill="white"/>
</svg>
