<svg width="143" height="111" viewBox="0 0 143 111" fill="none" xmlns="http://www.w3.org/2000/svg">
<circle cx="52.3846" cy="14.6384" r="13.6538" fill="white"/>
<circle cx="52.3846" cy="96.5615" r="13.6538" fill="white"/>
<circle cx="90.6153" cy="14.6384" r="13.6538" fill="white"/>
<circle cx="90.6153" cy="96.5615" r="13.6538" fill="white"/>
<path fill-rule="evenodd" clip-rule="evenodd" d="M0.5 69.2538C0.5 76.7946 6.61303 82.9076 14.1538 82.9076C21.6947 82.9076 27.8077 76.7946 27.8077 69.2538V41.9461V41.2634H27.7909C27.4352 34.0398 21.4657 28.2923 14.1538 28.2923C6.84196 28.2923 0.87247 34.0398 0.51677 41.2634H0.5V41.9461V69.2538Z" fill="white"/>
<path fill-rule="evenodd" clip-rule="evenodd" d="M115.192 69.2538C115.192 76.7946 121.305 82.9076 128.846 82.9076C136.387 82.9076 142.5 76.7946 142.5 69.2538V41.2634H142.483C142.127 34.0398 136.158 28.2923 128.846 28.2923C121.534 28.2923 115.565 34.0398 115.209 41.2634H115.192V41.9052C115.192 41.9188 115.192 41.9325 115.192 41.9461C115.192 41.9597 115.192 41.9734 115.192 41.987V69.2538Z" fill="white"/>
</svg>
